<svg width="1875" height="338" viewBox="0 0 1875 338" xmlns="http://www.w3.org/2000/svg">
  <g stroke="#fff" fill="#fff" fill-rule="evenodd">
    <g stroke-width="20">
      <path d="M88.388 284.854c-5.256 0-10.613-.401-16.067-1.272-32.001-5.099-53.636-22.227-62.555-49.528-8.214-25.137-5.229-58.705 8.401-94.52 12.649-33.23 33.798-66.305 58.024-90.737 35.512-35.82 72.901-49.891 105.225-39.631 17.543 5.567 28.901 18.323 31.986 35.917 3.963 22.613-6.404 49.913-24.119 63.5a6.214 6.214 0 0 1-8.706-1.147 6.209 6.209 0 0 1 1.15-8.706c13.839-10.614 22.562-33.72 19.44-51.504-1.588-9.063-6.956-20.97-23.505-26.223-37.351-11.853-74.08 17.807-92.655 36.538C35.301 107.675 6.842 185.13 21.568 230.197c7.486 22.906 25.218 36.743 52.705 41.123 50.581 8.047 93.461-29.721 109.549-46.336l.279-.286c61.196-63.128 123.664-172.11 124.288-173.205a6.208 6.208 0 0 1 8.473-2.316 6.214 6.214 0 0 1 2.315 8.471c-.63 1.106-63.858 111.428-126.161 175.691l-.27.28c-15.751 16.271-55.33 51.23-104.358 51.235z"/>
      <path d="M299.842 284.945c-3.586.002-7.258-.124-11.029-.381-16.253-1.107-26.18-6.731-29.504-16.716-2.772-8.312-10.739-32.22 88.93-122.998-5.736-10.727-12.623-21.853-20.624-33.257-24.212-34.53-20.845-57.482-13.759-71.114C324.783 19.462 349.956 11 361.349 11h.272c.035 0 .076-.55.119-.545 15.037.044 25.891 4.543 32.259 13.918 8.565 12.607 5.174 28.428 3.878 31.702-1.264 3.188-4.861 4.683-8.063 3.418-3.186-1.262-4.743-4.905-3.485-8.09.533-1.424 2.771-12.546-2.685-20.429-3.952-5.707-11.36-8.622-22.014-8.64-7.301.029-28.128 6.749-36.756 23.335-8.002 15.391-3.658 35.17 12.91 58.797 7.608 10.847 14.249 21.494 19.91 31.861a1455.626 1455.626 0 0 1 19.669-17.23c50.682-43.651 99.457-80.065 99.939-80.429a6.207 6.207 0 0 1 8.689 1.268 6.208 6.208 0 0 1-1.266 8.689c-.484.36-48.924 36.528-99.26 79.882a1457.855 1457.855 0 0 0-21.89 19.213c20.107 41.387 23.729 77.569 9.49 102.821-12.621 22.384-38.403 34.404-73.223 34.404zm54.191-128.581c-81.443 74.547-85.52 99.828-82.942 107.561 1.968 5.907 11.181 7.747 18.564 8.248 35.88 2.434 60.988-7.151 72.595-27.732 11.896-21.095 8.76-51.982-8.217-88.077z"/>
      <path d="M461.285 284.945a160.81 160.81 0 0 1-11.028-.381c-17.874-1.217-28.716-7.044-32.228-17.316-7.401-21.668 19.908-57.97 91.309-121.389.202-.18.395-.354.598-.532-5.789-10.876-12.757-22.157-20.876-33.733-24.216-34.53-20.849-57.482-13.759-71.114C486.229 19.462 511.4 11 522.792 11h.272c.037 0 .077-.55.119-.545 15.039.044 25.893 4.543 32.258 13.918 8.568 12.607 5.178 28.428 3.879 31.702-1.264 3.188-4.865 4.683-8.062 3.418-3.188-1.262-4.745-4.905-3.485-8.09.531-1.424 2.771-12.546-2.688-20.429-3.949-5.707-11.357-8.622-22.014-8.64-7.298.029-28.13 6.749-36.753 23.335-8.007 15.391-3.661 35.17 12.909 58.797 7.826 11.161 14.634 22.115 20.4 32.763 58.068-45.798 108.026-36.684 140.42-20.187a6.215 6.215 0 0 1 2.713 8.354 6.22 6.22 0 0 1-8.355 2.712c-29.42-14.995-75.176-23.025-129.002 20.407 19.767 41.054 23.257 76.938 9.106 102.027-12.62 22.383-38.405 34.403-73.224 34.403zm54.406-128.117c-77.386 68.996-89.478 95.954-85.908 106.406 2.162 6.337 12.787 8.359 21.317 8.939 35.886 2.434 60.988-7.151 72.592-27.732 11.849-21.005 8.792-51.717-8.001-87.613z"/>
    </g>
    <g stroke-width="10">
      <path d="M758.87 281.967a6.208 6.208 0 0 1-6.163-7.033c10.436-77.984 35.835-179.127 69.053-229.297a6.209 6.209 0 1 1 10.355 6.855c-32.132 48.525-56.853 147.514-67.098 224.087a6.21 6.21 0 0 1-6.147 5.388z"/>
      <path d="M1008.617 332.821c-.985 0-1.974-.008-2.98-.029-69.504-1.309-117.036-48.881-158.971-90.854-8.242-8.249-16.334-16.35-24.352-23.824-12.121-.28-25.272-1.315-39.572-3.209-27.793-3.686-45.213-12.01-49.057-23.443-1.826-5.424-.417-10.965 3.863-15.204 7.896-7.82 23.588-9.473 39.047-4.114 17.552 6.089 34.123 18.552 50.727 33.691 67.347.561 106.771-23.564 117.138-72.212 5.923-27.816-2.438-53.215-24.19-73.452-40.897-38.057-120.372-51.249-188.957-31.383-3.275.948-6.742-.941-7.693-4.236a6.208 6.208 0 0 1 4.236-7.691c72.52-21.001 156.989-6.61 200.875 34.217 25.122 23.374 34.76 52.812 27.874 85.131-7.968 37.408-35.409 78.355-116.466 81.756 5.068 4.941 10.164 10.041 15.312 15.194 40.274 40.311 85.925 86.001 150.423 87.217 64.175 1.234 88.676-40.596 89.686-42.377 1.693-2.979 5.48-4.032 8.454-2.346a6.2 6.2 0 0 1 2.372 8.433c-1.132 2.017-28.12 48.732-97.769 48.735zM758.951 181.423c-6.351 0-10.811 1.826-12.666 3.66-1.231 1.221-.978 1.973-.83 2.421 1.301 3.86 10.957 11.382 38.918 15.09a396.841 396.841 0 0 0 23.027 2.396c-11.621-9.515-23.172-17.051-34.872-21.111-5.12-1.776-9.698-2.456-13.577-2.456z"/>
      <path d="M1165.525 284.556c-14.084 0-24.736-6.424-30.854-18.623-7.219-14.394-7.528-36.489-3.232-61.779-13.83 8.246-27.677 13.96-40.945 16.06-5.041 14.155-12.191 26.591-21.27 36.844-14.377 16.23-33.152 26.088-51.516 27.048-25.303 1.327-44.905-14.181-49.872-39.503-7.719-39.364 21.435-95.179 69.212-105.452a5.84 5.84 0 0 1 .57-.095c.012-.021.023-.039.031-.058 6.939-11.761 17.437-17.993 28.767-17.041 7.704.63 14.28 4.123 19.553 10.378 12.17 14.453 13.505 39.229 12.514 50.309-.751 8.396-2.081 16.454-3.962 24.108 13.035-3.167 26.697-9.98 40.28-19.227 12.448-53.507 41.7-116.15 68.669-150.665 17.227-22.048 32.492-31.761 45.421-28.871 4.653 1.042 15.397 5.338 14.661 22.669-1.521 35.82-57.506 120.743-117.775 164.055-6.44 29.485-6.562 52.574-.006 65.657 4.132 8.238 10.674 11.989 20.516 11.759 25.518-.561 45.072-40.362 54.455-64.036l.73-1.836c1.302-3.172 4.937-4.697 8.102-3.395a6.21 6.21 0 0 1 3.396 8.098l-.687 1.708c-12.847 32.413-34.675 71.194-65.724 71.877-.346.006-.69.011-1.034.011zm-133.733-131.009c-35.534 12.806-57.938 57.198-51.765 88.666 3.762 19.188 17.988 30.504 37.038 29.49 22.449-1.172 46.556-18.596 59.718-50.564-16.732-.48-30.137-7.302-38.438-19.793-9.483-14.266-10.418-32.751-6.553-47.799zm32.408-19.264c-8.1 0-13.372 6.821-15.853 11.023-7.475 12.673-9.394 34.527.34 49.164 6.654 10.014 17.811 14.861 32.43 14.234 2.398-8.284 4.116-17.348 4.998-27.168.93-10.396-.864-30.774-9.648-41.203-3.101-3.682-6.72-5.645-11.065-6.001-.41-.033-.809-.049-1.202-.049zm180.171-114.37c-7.493 0-18.909 8.973-31.117 24.592-21.023 26.908-43 70.527-57.354 113.836a401.146 401.146 0 0 0-5.343 17.375c52.223-42.621 99.282-114.955 100.585-145.587.379-8.826-3.232-9.636-4.967-10.023a8.258 8.258 0 0 0-1.804-.193zM1787.031 284.553c-39.53.006-46.908-56.405-52.854-101.793-2.459-18.743-6.565-50.108-12.682-50.771-6.579-.686-21.051 29.895-30.562 50.33C1669.855 227.605 1643.625 284 1604.164 284h-.592c-21.347 0-37.671-8.716-47.23-25.745-4.496-8-7.158-16.979-8.324-26.572-.709.954-1.41 1.968-2.113 2.913-19.467 26.25-36.304 48.982-55.477 48.982-.147 0-.295.015-.446.012-11.604-.213-29.937-6.106-34.497-38.175-18.979 22.022-38.957 38.585-55.698 38.585h-.162c-11.62 0-21.281-5.294-27.206-15.177-11.517-19.228-7.74-50.812 10.109-84.717 20.807-39.523 52.33-53.813 72.688-47.598 6.092 1.864 10.889 5.432 14.207 10.289 20.715-67.858 59.256-138.977 92.074-138.977 3.986 0 7.4 1.97 9.363 5.391 11.498 20.011-31.98 105.056-56.572 147.227-10.242 17.564-27.771 45.465-47.418 70.724.398 25.893 8.248 38.838 23.344 38.838h.211c12.929 0 28.756-20.744 45.51-43.332 2.127-2.872 4.292-5.492 6.497-8.43 1.589-2.113 3.284-3.748 5.099-5.295 1.309-21.527 8.628-43.387 18.578-59.43 13.877-22.374 32.261-34.078 51.596-33.118 14.197.729 25.291 8.658 28.951 20.666 4.47 14.654-3.105 31.088-20.266 43.952-24.463 18.341-41.65 24.761-54.203 29.444-5.066 1.89-9.084 3.389-12.375 5.212.025 12.475 2.416 22.916 7.357 31.716 7.331 13.054 19.576 18.616 36.402 18.616h.496c31.612 0 56.006-51.598 75.607-93.713 16.646-35.761 27.771-58.841 43.157-57.173 15.826 1.713 19.112 27.058 23.657 61.77 5.312 40.558 11.919 91.116 40.643 91.116.164 0 .328.064.496.061 52.271-1.047 69.693-88.963 69.865-89.852a6.19 6.19 0 0 1 7.264-4.917c3.362.641 5.573 3.896 4.935 7.264-.186.992-4.757 24.561-16.706 48.634-16.418 33.068-38.934 50.826-65.11 51.352-.28.004-.565.01-.844.01zm-341.601-136.97c-15.455 0-37.165 14.423-51.915 42.444-11.649 22.129-21.371 53.378-10.442 71.625 3.712 6.195 9.309 8.349 16.635 8.349h.097c12.621 0 32.047-15.137 54.644-43.565.223-15.607 3.082-34.047 7.904-54.219-.265-.813-.365-1.429-.268-2.332 1.263-11.534-2.467-19.108-10.499-21.564-1.9-.582-3.967-.738-6.156-.738zm115-127.277c-14.879 1.384-38.035 31.109-58.135 74.846-17.621 38.345-30.205 80.912-34.141 114.134 9.072-12.666 18.5-27.003 28.084-42.797 44.186-72.806 67.213-134.519 64.192-146.183zm55.006 112.487c-18.936 0-32.363 17.003-38.773 27.34-8.456 13.633-13.869 29.78-15.921 45.421 2.248-.919 4.613-1.803 7.104-2.73 11.841-4.42 28.062-10.473 51.097-27.738 12.793-9.592 18.713-20.951 15.836-30.384-2.096-6.867-8.881-11.415-17.71-11.867a31.959 31.959 0 0 0-1.633-.042z"/>
      <path d="M1689.085 284.082c-1.396 0-2.8-.11-4.22-.337a6.205 6.205 0 0 1-5.151-7.109c.539-3.392 3.763-5.694 7.109-5.153 17.892 2.904 39.693-31.774 60.778-65.266 27.751-44.082 59.247-94.051 99.008-90.729a6.213 6.213 0 0 1 5.673 6.704 6.205 6.205 0 0 1-6.703 5.673c-32.155-2.687-61.597 43.878-87.469 84.968-23.969 38.079-44.857 71.245-69.025 71.249zM1266.208 284.185c-23.878 0-42.122-15.267-46.89-39.583-7.719-39.364 21.433-95.179 69.209-105.452.191-.041.385-.074.572-.095.012-.021.023-.039.032-.058 6.937-11.761 17.462-17.993 28.763-17.041 7.708.63 14.284 4.123 19.553 10.378 12.17 14.453 13.508 39.229 12.517 50.309-.745 8.31-2.055 16.289-3.905 23.873 11.331-3.323 25.422-10.776 34.668-20.861 2.319-2.525 6.247-2.7 8.773-.38a6.206 6.206 0 0 1 .381 8.772c-13.602 14.84-33.966 23.802-47.906 26.157-5.034 14.157-12.188 26.599-21.268 36.853-14.377 16.23-33.153 26.088-51.518 27.048-1.001.051-1.998.08-2.981.08zm17.065-130.638c-35.533 12.806-57.939 57.198-51.77 88.666 3.766 19.188 17.977 30.504 37.041 29.49 22.448-1.172 46.555-18.596 59.719-50.564-16.731-.48-30.137-7.302-38.439-19.793-9.482-14.266-10.416-32.751-6.551-47.799zm32.409-19.264c-8.1 0-13.372 6.821-15.854 11.023-7.475 12.673-9.393 34.527.34 49.164 6.655 10.01 17.738 14.854 32.428 14.234 2.4-8.284 4.119-17.348 5-27.168.93-10.396-.863-30.774-9.649-41.203-3.099-3.682-6.718-5.645-11.064-6.001-.41-.033-.809-.049-1.201-.049z"/>
    </g>
  </g>
</svg>
